<svg width="32" height="32" viewBox="0 0 32 32" fill="none" xmlns="http://www.w3.org/2000/svg">
<path d="M16 28.5C16 28.5 4 21 4 11.5C4 7.36 7.36 4 11.5 4C13.8 4 15.9 5.1 17.2 6.8C17.2 6.8 16 8 16 8C16 8 14.8 6.8 14.8 6.8C13.5 5.1 11.4 4 9.1 4C4.96 4 1.6 7.36 1.6 11.5C1.6 21 13.6 28.5 13.6 28.5L16 28.5Z" fill="none"/>
<path d="M16 28.5C16 28.5 28 21 28 11.5C28 7.36 24.64 4 20.5 4C18.2 4 16.1 5.1 14.8 6.8C13.5 5.1 11.4 4 9.1 4C4.96 4 1.6 7.36 1.6 11.5C1.6 21 13.6 28.5 13.6 28.5H16Z" stroke="#64748B" stroke-width="2.5" stroke-linecap="round" stroke-linejoin="round"/>
<path d="M22 8L23 9" stroke="#64748B" stroke-width="2" stroke-linecap="round" stroke-opacity="0.3"/>
</svg>