<svg width="24" height="24" viewBox="0 0 24 24" fill="none" xmlns="http://www.w3.org/2000/svg">
<path d="M12 22C17.5 22 22 17.5 22 12C22 6.5 17.5 2 12 2C6.5 2 2 6.5 2 12C2 17.5 6.5 22 12 22Z" stroke="currentColor" stroke-width="1.5" stroke-linecap="round" stroke-linejoin="round"/>
<path d="M9 8H10C10.55 8 11 8.45 11 9V15C11 15.55 10.55 16 10 16H9C8.45 16 8 15.55 8 15V9C8 8.45 8.45 8 9 8Z" stroke="currentColor" stroke-width="1.5" stroke-linecap="round" stroke-linejoin="round"/>
<path d="M14 8H15C15.55 8 16 8.45 16 9V15C16 15.55 15.55 16 15 16H14C13.45 16 13 15.55 13 15V9C13 8.45 13.45 8 14 8Z" stroke="currentColor" stroke-width="1.5" stroke-linecap="round" stroke-linejoin="round"/>
</svg>