<svg width="32" height="32" viewBox="0 0 32 32" fill="none" xmlns="http://www.w3.org/2000/svg">
<path d="M16 21C18.7614 21 21 18.7614 21 16C21 13.2386 18.7614 11 16 11C13.2386 11 11 13.2386 11 16C11 18.7614 13.2386 21 16 21Z" stroke="#64748B" stroke-width="2.5" stroke-linecap="round" stroke-linejoin="round"/>
<path d="M3.6 16C3.6 9.3 3.6 6 7 4.5H25C28.4 6 28.4 9.3 28.4 16C28.4 22.7 28.4 26 25 27.5H7C3.6 26 3.6 22.7 3.6 16Z" stroke="#64748B" stroke-width="2.5" stroke-linecap="round" stroke-linejoin="round"/>
<path d="M25 16H24" stroke="#64748B" stroke-width="2.5" stroke-linecap="round"/>
<path d="M8 16H7" stroke="#64748B" stroke-width="2.5" stroke-linecap="round"/>
</svg>